# xmcd
#
# Track frame offsets:
# 150
# 15379
# 35542
# 60207
# 76136
# 98439
# 119565
# 138201
# 156554
# 176779
# 195644
# 216308
# 233298
# 253433
# 277964
#
# Disc length: 3950 seconds
#
#
# Revision: 0
# Processed by: cddbd v1.5.1PL2 Copyright (c) Steve Scherf et al.
# Submitted via: FreeRIP 2.944 
#
DISCID=c40f6c0f
DTITLE=團契遊樂園(華語系列1) - 您對我的愛
DYEAR=2000
DGENRE=Other
TTITLE0=謝謝神
TTITLE1=您對我的愛
TTITLE2=我心獻上
TTITLE3=算了吧
TTITLE4=當我懂得您的愛
TTITLE5=拭去
TTITLE6=天使的光
TTITLE7=神愛這地方
TTITLE8=請聽我說
TTITLE9=是您的愛
TTITLE10=惟有您
TTITLE11=偶然遇上的驚喜
TTITLE12=您對我的愛MMO
TTITLE13=我心獻上MMO
TTITLE14=神愛這地方MMO
EXTD=
EXTT0=
EXTT1=
EXTT2=
EXTT3=
EXTT4=
EXTT5=
EXTT6=
EXTT7=
EXTT8=
EXTT9=
EXTT10=
EXTT11=
EXTT12=
EXTT13=
EXTT14=
PLAYORDER=
